<svg width="41" height="40" viewBox="0 0 41 40" fill="none" xmlns="http://www.w3.org/2000/svg">
<path fill-rule="evenodd" clip-rule="evenodd" d="M35.2931 0.284053C34.288 0.882095 33.8367 1.61449 33.7423 2.80058L33.6991 3.34285L30.6684 4.70438L27.6377 6.06607L27.1904 5.69877C26.5384 5.16338 25.7146 4.94216 24.8457 5.06933C24.2649 5.15432 23.954 5.32179 23.4331 5.83C22.5467 6.6952 22.2825 7.59086 22.6147 8.60634L22.8515 9.32999L19.7504 12.2507L16.6491 15.1712L16.0699 14.9848C15.1971 14.7036 14.1616 14.8802 13.3309 15.4516L12.6113 15.9464L10.0506 14.9467L7.48984 13.9468L7.44165 13.3171C7.2766 11.1575 4.82673 9.94584 3.02347 11.1318C2.15306 11.7042 1.761 12.4082 1.761 13.399C1.761 15.0656 2.9668 16.2408 4.67705 16.2408C5.24409 16.2408 5.59196 16.1219 6.20751 15.7177L7.00412 15.1945L9.58543 16.2023C11.4553 16.9324 12.1672 17.2812 12.1678 17.4676C12.1701 18.1275 12.575 19.0191 13.109 19.5403C14.4675 20.866 16.4698 20.6526 17.5661 19.065C17.975 18.4731 18.0705 17.1011 17.7443 16.5063C17.5725 16.1931 17.7934 15.9455 20.6659 13.2332C23.1107 10.9248 23.8418 10.3175 24.0936 10.3858C25.4794 10.7612 26.3544 10.6398 27.145 9.96256C27.8783 9.33405 28.0655 8.98441 28.1699 8.04689L28.256 7.27387L31.2777 5.90124L34.2994 4.52862L34.7669 4.91263C35.345 5.38725 36.3823 5.67362 37.0685 5.54801C38.1536 5.34944 39.268 4.26194 39.4715 3.20302C39.685 2.09255 38.9603 0.746645 37.879 0.245933C37.1388 -0.096832 35.9026 -0.0787095 35.2931 0.284053ZM37.3043 1.47873C38.238 1.94992 38.392 3.01446 37.6336 3.75451C36.8681 4.50159 35.7843 4.34396 35.2915 3.41393C34.9846 2.83495 35.101 2.18348 35.5885 1.75104C36.2078 1.20158 36.6241 1.1355 37.3043 1.47873ZM26.3314 6.74988C27.5522 7.78505 26.4105 9.69884 24.8683 9.20219C23.8306 8.86802 23.5396 7.61819 24.3214 6.85502C24.9117 6.279 25.7259 6.23635 26.3314 6.74988ZM32.4297 9.14345C32.2115 9.35655 32.1782 10.0541 32.1785 14.4162L32.1788 19.4434L31.218 19.3905L30.2571 19.3375V18.4453C30.2571 17.9546 30.1707 17.4687 30.065 17.3656C29.7917 17.0989 21.9175 17.0989 21.6442 17.3656C21.5071 17.4995 21.4521 18.4845 21.4521 20.8071V24.0611L20.961 25.0106C19.4921 27.8501 19.4921 31.5027 20.961 34.3422C21.4385 35.2655 21.4521 35.3515 21.4521 37.452C21.4521 38.9242 21.5133 39.6722 21.6442 39.8C21.7893 39.9415 24.1346 39.9875 31.2177 39.9875C38.3007 39.9875 40.646 39.9415 40.7911 39.8C41.0696 39.5281 41.0696 9.35733 40.7911 9.08549C40.652 8.94973 39.5057 8.89802 36.6401 8.89802C33.2547 8.89802 32.6449 8.93364 32.4297 9.14345ZM39.7025 17.4296V24.5552L39.0104 23.6379C37.961 22.2466 36.5986 21.1426 35.0251 20.4077L33.6296 19.7559L33.6243 15.03L33.619 10.3041H36.6607H39.7025V17.4296ZM5.6155 12.4792C6.39738 13.2424 6.10634 14.4922 5.06863 14.8264C4.01811 15.1648 2.93318 14.3076 3.10192 13.2724C3.29947 12.0602 4.72507 11.6103 5.6155 12.4792ZM16.2266 16.7365C17.5064 18.0916 15.4132 19.9015 14.0756 18.5962C13.3352 17.8736 13.543 16.7062 14.4844 16.299C15.135 16.0177 15.6759 16.1534 16.2266 16.7365ZM28.9469 18.9935C28.9016 19.3605 28.778 19.432 27.7554 19.6846C26.3186 20.0394 24.9256 20.7215 23.7824 21.6303L22.893 22.3372V20.4608V18.5842H25.9452H28.9977L28.9469 18.9935ZM32.9958 21.0224C34.4488 21.4389 35.7218 22.197 36.9017 23.3484C38.7767 25.1781 39.597 27.1041 39.597 29.6764C39.597 32.2487 38.7767 34.1747 36.9017 36.0044C35.0267 37.8342 33.0531 38.6347 30.4172 38.6347C27.7813 38.6347 25.8077 37.8342 23.9327 36.0044C22.0594 34.1764 21.2319 32.2401 21.2279 29.6764C21.221 25.2743 24.4156 21.555 28.8719 20.7765C29.9365 20.5906 31.8969 20.7075 32.9958 21.0224ZM0.280158 21.8775C0.0185704 22.0262 0 22.62 0 30.8247C0 37.4514 0.0472269 39.6586 0.192109 39.8C0.331388 39.9359 1.49653 39.9875 4.42891 39.9875C8.26388 39.9875 8.48208 39.9718 8.63929 39.6853C8.74767 39.4875 8.80498 36.4192 8.80498 30.8045C8.80498 22.692 8.78913 22.2118 8.51218 21.9673C8.25667 21.7415 7.73318 21.7094 4.38984 21.7134C2.08774 21.7164 0.448574 21.7817 0.280158 21.8775ZM29.969 22.5211C29.8633 22.6242 29.7769 23.0033 29.7769 23.3635C29.7769 23.9477 29.7293 24.0298 29.3366 24.1254C28.1084 24.4246 27.1655 25.7483 27.1634 27.1767C27.161 28.9084 27.9368 29.7175 30.1686 30.3111C31.6466 30.7044 31.933 30.8539 32.1668 31.3547C32.7565 32.6179 31.8267 34.0508 30.4172 34.0508C29.3952 34.0508 28.4961 33.2282 28.4961 32.2932C28.4961 31.5769 27.8079 31.3109 27.319 31.8381C26.5918 32.6224 27.9347 34.8858 29.3284 35.2253C29.7085 35.3178 29.7663 35.4162 29.8087 36.0416C29.8998 37.3861 30.9346 37.3861 31.0257 36.0416C31.0681 35.4162 31.1259 35.3178 31.506 35.2253C32.726 34.9282 33.669 33.6002 33.6711 32.176C33.6735 30.4444 32.8977 29.6353 30.6658 29.0416C29.1879 28.6484 28.9015 28.4989 28.6676 27.998C28.078 26.7349 29.0078 25.302 30.4172 25.302C31.4392 25.302 32.3383 26.1245 32.3383 27.0596C32.3383 27.7759 33.0265 28.0419 33.5154 27.5147C34.2451 26.7277 32.8991 24.4668 31.4978 24.1254C31.1051 24.0298 31.0576 23.9477 31.0576 23.3635C31.0576 22.6752 30.8451 22.3337 30.4172 22.3337C30.2763 22.3337 30.0746 22.418 29.969 22.5211ZM7.36417 30.9262V38.7376H4.32245H1.28072V30.9262V23.1148H4.32245H7.36417V30.9262ZM10.9182 26.1144C10.6419 26.384 10.6419 39.5303 10.9182 39.8C11.1915 40.0667 19.0657 40.0667 19.3389 39.8C19.6153 39.5303 19.6153 26.384 19.3389 26.1144C19.0657 25.8477 11.1915 25.8477 10.9182 26.1144ZM18.0902 33.0353V38.7376H15.0485H12.0068V33.0353V27.333H15.0485H18.0902V33.0353ZM39.7025 36.7848V38.7376H37.6837H35.665L36.6031 38.063C37.5865 37.3558 38.8794 36.0411 39.3402 35.28C39.4894 35.0336 39.6319 34.8319 39.657 34.8319C39.682 34.8319 39.7025 35.7107 39.7025 36.7848ZM24.4779 38.249L25.1823 38.7376H24.0376H22.893V37.8492V36.9607L23.3332 37.3605C23.5753 37.5805 24.0904 37.9802 24.4779 38.249Z" fill="#AC9376"/>
</svg>
