<svg width="36" height="40" viewBox="0 0 36 40" fill="none" xmlns="http://www.w3.org/2000/svg">
<path fill-rule="evenodd" clip-rule="evenodd" d="M0.00285519 0C0.00285519 0 -0.0076851 9.3131 0.0117377 20.202L0.0471396 40H18.0236H36V20.0591V0.118109L18.0539 0.0818011L0.00285519 0ZM36 20.0591V40H18.0236H0.0471396L0.037436 34.5734C0.037436 34.5734 0.177038 35.588 0.26327 36.0427C0.402536 36.7771 0.822812 37.5229 1.33111 37.9379C2.21492 38.6595 1.93267 38.642 12.7385 38.642C22.7572 38.642 22.8534 38.6393 23.4702 38.3384C24.116 38.0233 24.8665 37.2168 24.9936 36.7011C25.0466 36.4857 25.2588 36.3532 25.7657 36.2182C26.5733 36.0035 27.415 35.2876 27.8138 34.4763C28.0033 34.0908 28.0793 33.6412 28.0793 32.9052C28.0793 31.509 28.3779 30.8397 29.0516 30.7255C29.5887 30.6345 30.0481 30.2106 30.2708 29.6007C30.3761 29.3125 30.5087 29.2076 30.7684 29.2076C31.161 29.2076 31.7986 28.6325 31.7986 28.2784C31.7986 28.0968 31.8938 28.0696 32.2729 28.1434C32.5955 28.2063 33.0388 28.1349 33.6591 27.9208C34.79 27.5303 35.2549 27.1374 35.2707 26.5592C35.286 25.9972 33.083 19.8 32.7185 19.3801C32.3623 18.9697 31.7824 18.9641 30.7363 19.3608C29.8311 19.7041 29.4487 20.0282 29.2502 20.6201C29.1125 21.0308 29.1125 21.0308 28.5991 20.8168L28.0858 20.603L28.0481 12.3383L28.0105 4.07356L27.5921 3.45375C27.3518 3.09782 26.8828 2.66826 26.4901 2.44427L25.8065 2.0546L15.622 2.05117C5.56983 2.04788 5.42974 2.05174 4.84292 2.34664C4.2185 2.66026 3.46376 3.48477 3.33951 3.9888C3.28648 4.20422 3.07434 4.33673 2.56742 4.47167C1.39916 4.78229 0.315087 5.86196 0.106671 7.12245C0.0547391 7.43693 1.84977e-05 7.8902 1.84977e-05 7.8902L0.00285519 0L18.0539 0.0818011L36 0.118109V20.0591ZM26.0978 3.41473C26.3071 3.57683 26.606 3.88702 26.7622 4.10401C27.0399 4.48982 27.047 4.67451 27.0841 12.3504L27.122 20.202H26.4411C26.0665 20.202 25.6654 20.2397 25.5497 20.2858C25.3632 20.3601 25.3345 19.6016 25.2973 13.603C25.2564 6.99538 25.2486 6.82312 24.9594 6.26292C24.6094 5.58479 24.0449 4.97198 23.4676 4.64335C23.0937 4.4305 22.103 4.40248 13.7189 4.36689C8.58587 4.34516 4.38628 4.27669 4.38628 4.21494C4.38628 4.03082 5.11759 3.36184 5.48828 3.20674C5.71075 3.11383 9.35328 3.07294 15.7751 3.09138C25.5804 3.11954 25.7229 3.12397 26.0978 3.41473ZM14.3043 8.18283C14.3043 9.67018 14.3419 10.9889 14.3879 11.1132C14.5642 11.5901 15.2436 11.3631 16.7233 10.3329L18.1689 9.32654L19.5807 10.3329C20.3573 10.8865 21.0973 11.3394 21.2252 11.3394C21.6607 11.3394 21.7428 10.8305 21.7428 8.13251V5.47858H22.2734C22.941 5.47858 23.6596 5.96102 23.981 6.625C24.2002 7.07743 24.2219 7.72898 24.2221 13.8205C24.2223 20.144 24.2088 20.5126 23.9813 20.4144C23.4851 20.2003 22.3674 20.1681 21.434 20.3412C20.4697 20.5201 20.4692 20.5199 20.1762 20.1468C19.9884 19.9075 19.5121 19.6437 18.8503 19.4124C17.7483 19.0271 17.2407 19.0423 16.8666 19.4714C16.6169 19.7577 14.5798 26.2024 14.5798 26.706C14.5798 26.8851 14.6882 27.17 14.8209 27.339C15.0672 27.6528 16.7133 28.3499 17.2082 28.3499C17.4365 28.3499 17.4584 28.3961 17.3396 28.6264C16.9391 29.403 17.4333 30.6312 18.2298 30.8386C18.4195 30.8879 18.5746 31.0269 18.5746 31.1472C18.5746 31.9426 19.5132 32.7263 20.306 32.5928C20.6361 32.5372 20.8173 32.5887 20.99 32.7868C21.2669 33.1043 22.0875 33.4139 22.2967 33.2797C22.3769 33.2282 22.5746 33.3602 22.7357 33.5727C23.061 34.0019 23.877 34.4152 24.1072 34.2676C24.2097 34.202 24.2385 34.4866 24.2003 35.1877C24.1412 36.2725 23.9314 36.7124 23.2051 37.2752C22.8289 37.5666 22.7107 37.5699 12.7202 37.5699C2.72955 37.5699 2.61136 37.5666 2.2353 37.2752C2.02606 37.1131 1.72714 36.8029 1.57093 36.5857C1.28896 36.1939 1.28662 36.0841 1.25094 21.6568C1.21636 7.71325 1.22532 7.10216 1.47148 6.62214C1.61267 6.34697 1.93253 5.97703 2.18213 5.80021C2.63547 5.47915 2.64663 5.47858 8.4703 5.47858H14.3043V8.18283ZM20.6408 7.6392V9.79983L20.321 9.58227C20.1451 9.46277 19.6388 9.10154 19.1961 8.77962C18.7534 8.45785 18.2923 8.19455 18.1715 8.19455C18.0506 8.19455 17.5494 8.47329 17.0578 8.81393C16.5662 9.15457 15.9935 9.54796 15.7851 9.68805L15.4063 9.94278V7.71068V5.47858H18.0236H20.6408V7.6392ZM5.14184 15.0628C4.9213 15.7838 4.83162 15.776 12.7575 15.7362C19.3669 15.7031 20.1433 15.6753 20.2689 15.4685C20.346 15.3416 20.3703 15.1326 20.3228 15.0039C20.2441 14.7914 19.5526 14.7701 12.7338 14.7701C5.29378 14.7701 5.23055 14.7725 5.14184 15.0628ZM5.21829 19.123C5.12696 19.2373 5.09252 19.4624 5.14184 19.6234C5.22931 19.9095 5.32119 19.9161 9.21002 19.9161C12.8333 19.9161 13.2005 19.8941 13.3216 19.6697C13.4059 19.5133 13.4066 19.3303 13.3235 19.1694C13.2029 18.9354 12.8874 18.9155 9.2884 18.9155C6.04341 18.9155 5.35618 18.9505 5.21829 19.123ZM33.1458 23.2319C33.7693 24.9768 34.2325 26.4517 34.1754 26.5093C34.1182 26.5669 33.7512 26.7443 33.3597 26.9034C32.8167 27.1243 32.6179 27.152 32.5214 27.0209C32.3408 26.7759 30.2295 20.7819 30.2985 20.7103C30.3796 20.6263 31.7008 20.0914 31.8711 20.0736C31.9489 20.0656 32.5225 21.4868 33.1458 23.2319ZM18.6434 20.4636C19.0223 20.595 19.3322 20.7666 19.3322 20.8453C19.3322 20.9239 18.8983 22.3929 18.3679 24.11L17.4037 27.2318L16.9827 27.161C16.751 27.1222 16.3387 26.9936 16.0663 26.8756L15.5711 26.6609L16.521 23.6101C17.0435 21.9322 17.5004 20.479 17.5363 20.3807C17.6189 20.1548 17.7893 20.1676 18.6434 20.4636ZM23.5209 21.4278C23.5576 21.4658 23.1484 21.9614 22.6118 22.529C21.3794 23.8325 21.2472 24.0841 21.5464 24.5578C21.8361 25.0167 22.5087 25.4431 23.1203 25.5558C23.5812 25.6405 23.8395 25.5843 25.77 24.9784L26.5598 24.7304L28.1117 25.5626C30.3604 26.7684 30.8344 27.129 30.8344 27.6336C30.8344 27.861 30.7711 28.0876 30.694 28.1372C30.6168 28.1867 29.7155 27.7681 28.6911 27.2071C27.6666 26.646 26.7225 26.2082 26.593 26.234C26.4354 26.2655 26.3575 26.4181 26.3575 26.6949C26.3575 27.0728 26.4821 27.1792 27.8038 27.9278C29.1195 28.673 29.2502 28.7839 29.2502 29.156C29.2502 29.817 28.7925 29.7516 27.1849 28.8607C26.3941 28.4225 25.6543 28.064 25.5406 28.064C25.427 28.064 25.2655 28.1968 25.1819 28.3591C24.9786 28.7533 25.172 28.9807 26.143 29.4893C27.2573 30.0731 27.5822 30.3789 27.4717 30.74C27.3095 31.2706 26.9815 31.2371 25.7895 30.5683C25.1563 30.2131 24.4808 29.9223 24.2882 29.9223C24.0957 29.9223 23.9017 29.8234 23.8569 29.7026C23.7573 29.4332 23.0972 29.0646 22.714 29.0646C22.5586 29.0646 22.4316 29.0053 22.4316 28.9327C22.4316 28.6108 21.6943 27.9246 21.2571 27.8395C20.9875 27.787 20.7557 27.6425 20.712 27.4998C20.5477 26.9628 19.9543 26.5631 19.321 26.5631C18.9863 26.5631 18.7123 26.5396 18.7123 26.5111C18.7123 26.4825 19.0617 25.3408 19.4885 23.9738L20.2649 21.4885L20.7627 21.4802C21.0366 21.4758 21.5087 21.416 21.8117 21.3477C22.3339 21.2298 23.3774 21.2787 23.5209 21.4278ZM27.8038 21.6669C28.1448 21.8199 28.6933 21.9871 29.0228 22.0384L29.6217 22.1318L30.2918 23.9835C30.6602 25.002 30.9366 25.8614 30.906 25.8931C30.8753 25.925 30.6762 25.8241 30.4635 25.669C30.2507 25.5137 29.3884 25.0243 28.547 24.5811C26.7713 23.646 26.4152 23.6021 24.9111 24.133C23.7606 24.5391 23.1542 24.582 22.7678 24.2847C22.5119 24.0877 22.5328 24.0445 23.2581 23.2739C25.1572 21.2559 26.1254 20.9137 27.8038 21.6669ZM5.24033 23.2325C4.9921 23.49 5.04114 23.8897 5.34144 24.0565C5.50591 24.1479 7.00822 24.2045 9.26732 24.2045C12.757 24.2045 12.9398 24.191 13.2055 23.9153C13.4268 23.6856 13.4541 23.5679 13.3384 23.3435C13.1984 23.0722 13.0366 23.0609 9.29914 23.0609C6.45446 23.0609 5.36114 23.1071 5.24033 23.2325ZM5.24033 27.3779C4.9921 27.6355 5.04114 28.0351 5.34144 28.202C5.50633 28.2934 7.02654 28.3499 9.32642 28.3499C12.5232 28.3499 13.0753 28.3185 13.2614 28.1253C13.3804 28.0017 13.4778 27.8455 13.4778 27.7781C13.4778 27.7108 13.3804 27.5546 13.2614 27.4309C13.075 27.2375 12.514 27.2063 9.22531 27.2063C6.43807 27.2063 5.361 27.2527 5.24033 27.3779ZM19.7734 27.8736C19.8247 28.0123 19.693 28.4464 19.4592 28.91C19.1455 29.5316 18.9769 29.7175 18.6955 29.7514C18.1466 29.8174 18.1119 29.4439 18.5782 28.4854C18.9184 27.786 19.0533 27.6352 19.3385 27.6352C19.5351 27.6352 19.7234 27.7384 19.7734 27.8736ZM21.4267 29.1608C21.4797 29.3044 21.3056 29.8224 20.9917 30.4552C20.5235 31.3992 20.4303 31.5057 20.1069 31.4667C19.5705 31.4022 19.5863 30.9602 20.1641 29.8694C20.5704 29.1024 20.7302 28.9217 21.0021 28.9217C21.1893 28.9217 21.3774 29.0278 21.4267 29.1608ZM23.1203 30.587C23.1203 30.7112 22.9539 31.1302 22.7505 31.518C22.4383 32.113 22.3252 32.2166 22.0273 32.1807C21.5516 32.1233 21.4983 31.6417 21.8919 30.9564C22.3153 30.2191 22.5473 30.043 22.8638 30.2188C23.0049 30.2971 23.1203 30.4628 23.1203 30.587ZM24.6141 31.8252C24.7959 32.0525 24.4284 32.8896 24.042 33.1279C23.845 33.2494 23.7515 33.2235 23.5943 33.0041C23.3283 32.6323 23.3435 32.4599 23.6814 32.0143C23.9909 31.6058 24.3762 31.5277 24.6141 31.8252ZM26.1051 32.4127C25.9614 32.8014 25.7376 32.6589 25.7376 32.1789C25.7376 31.7533 25.7543 31.7367 25.9631 31.9533C26.0871 32.0819 26.151 32.2888 26.1051 32.4127ZM26.8718 34.0393C26.609 34.5679 25.8618 35.2113 25.5106 35.2113C25.3767 35.2113 25.3243 34.9905 25.3243 34.4251V33.6389H25.8153C26.1693 33.6389 26.4094 33.5293 26.6762 33.2458L27.0462 32.8527L27.0904 33.1816C27.1148 33.3626 27.0165 33.7485 26.8718 34.0393Z" fill="#AC9376"/>
</svg>
