<svg width="39" height="40" viewBox="0 0 39 40" fill="none" xmlns="http://www.w3.org/2000/svg">
<path fill-rule="evenodd" clip-rule="evenodd" d="M18.7532 0.0777407C16.5141 0.653125 15.3253 3.06375 16.2471 5.15971C16.5078 5.75279 16.5187 5.89643 16.3244 6.17603C16.1998 6.35524 14.3912 8.68928 12.3051 11.363L8.51229 16.2241L5.9987 16.2911C3.90996 16.3468 3.35881 16.4171 2.7383 16.7074C1.63136 17.2253 0.984626 17.8626 0.464847 18.9478L0 19.9185V28.1724V36.4262L0.464847 37.3969C0.9828 38.4784 1.62522 39.1134 2.7383 39.644C3.4798 39.9974 3.59945 40 19.5 40C35.4005 40 35.5202 39.9974 36.2617 39.644C37.3748 39.1134 38.0172 38.4784 38.5352 37.3969L39 36.4262V28.1724V19.9185L38.5352 18.9478C38.0154 17.8626 37.3686 17.2253 36.2617 16.7074C35.6412 16.4171 35.09 16.3468 33.0013 16.2911L30.4877 16.2241L26.6949 11.363C24.6088 8.68928 22.8002 6.35524 22.6756 6.17603C22.4813 5.89643 22.4922 5.75279 22.7529 5.15971C23.3422 3.8197 22.9893 1.96097 21.964 1.00574C21.1168 0.216269 19.7504 -0.178553 18.7532 0.0777407ZM20.6745 2.46182C21.7434 3.55813 21.012 5.36801 19.5 5.36801C18.9593 5.36801 18.7061 5.26063 18.3255 4.87057C17.2566 3.77426 17.988 1.96438 19.5 1.96438C20.0407 1.96438 20.2939 2.07176 20.6745 2.46182ZM19.5 7.31744C19.7282 7.31744 20.1522 7.26469 20.4423 7.20036C20.9672 7.08378 20.988 7.10642 24.5517 11.6714L28.1336 16.2596H19.5H10.8664L14.4483 11.6714C18.012 7.10642 18.0328 7.08378 18.5577 7.20036C18.8478 7.26469 19.2718 7.31744 19.5 7.31744ZM35.8898 18.6413C36.1874 18.8273 36.579 19.229 36.7604 19.5341C37.0774 20.0669 37.0903 20.4058 37.0903 28.1724C37.0903 35.9389 37.0774 36.2778 36.7604 36.8106C36.579 37.1158 36.1874 37.5174 35.8898 37.7034C35.3601 38.0347 35.0227 38.0417 19.5 38.0417C3.97734 38.0417 3.63994 38.0347 3.11021 37.7034C2.81265 37.5174 2.42099 37.1158 2.2396 36.8106C1.92262 36.2778 1.90967 35.9389 1.90967 28.1724C1.90967 20.4058 1.92262 20.0669 2.2396 19.5341C2.42099 19.229 2.81265 18.8273 3.11021 18.6413C3.63994 18.31 3.97734 18.303 19.5 18.303C35.0227 18.303 35.3601 18.31 35.8898 18.6413ZM7.40519 23.8685C6.53806 24.3065 6.22473 24.984 6.22407 26.422C6.2234 27.5515 6.2644 27.6979 6.73488 28.2474C7.33283 28.9457 8.05375 29.1912 9.51019 29.1924L10.5566 29.1935L10.5059 30.0018L10.4553 30.8102L8.75426 30.8587C7.18231 30.9034 7.03394 30.9373 6.79994 31.3037C6.5057 31.764 6.6841 32.4807 7.137 32.659C7.28835 32.7186 8.13424 32.7671 9.0168 32.7669C11.4479 32.7666 12.2928 32.179 12.4759 30.3612C12.5497 29.6276 12.4948 29.2466 12.2253 28.6218C11.768 27.5618 10.9517 27.1603 9.243 27.155L8.03068 27.1513L8.0813 26.3429L8.13191 25.5345L9.78551 25.4854C11.0247 25.4486 11.5135 25.3673 11.7355 25.1612C12.1242 24.8004 12.1111 24.3394 11.7 23.9178C11.4107 23.6212 11.1499 23.578 9.66702 23.5814C8.42168 23.5841 7.81577 23.661 7.40519 23.8685ZM15.1788 23.9604C14.6378 24.2401 14.3377 24.5478 14.0649 25.1026C13.7182 25.8075 13.6915 26.0851 13.6915 28.9743C13.6915 31.8597 13.7157 32.1114 14.0234 32.4269C14.8222 33.246 15.517 32.6262 15.517 31.0946V30.0444H16.8447H18.1723V31.1242C18.1723 31.9541 18.2425 32.2691 18.4759 32.4856C18.8792 32.8599 19.2622 32.841 19.666 32.4269C19.9736 32.1114 19.9979 31.8597 19.9979 28.9743C19.9979 26.0851 19.9712 25.8075 19.6245 25.1026C19.1385 24.1146 18.1597 23.5775 16.8447 23.5775C16.215 23.5775 15.6826 23.6998 15.1788 23.9604ZM21.9894 23.9178C21.6767 24.2384 21.6574 24.485 21.6574 28.1724C21.6574 33.0472 21.5058 32.7673 24.1468 32.7673C25.7511 32.7673 26.0125 32.7261 26.3043 32.4269C26.7177 32.003 26.7281 31.5438 26.3326 31.1769C26.1058 30.9664 25.7078 30.8953 24.756 30.8953H23.483V27.518C23.483 24.4622 23.4541 24.1139 23.1794 23.8591C22.7762 23.4849 22.3931 23.5038 21.9894 23.9178ZM27.7406 23.8887C27.5015 24.1596 27.466 24.7168 27.466 28.202C27.466 31.8629 27.4918 32.228 27.7695 32.4856C28.0178 32.716 28.4503 32.7673 30.1502 32.7673C31.9516 32.7673 32.2638 32.7259 32.5019 32.456C32.8481 32.0639 32.8541 31.5095 32.5159 31.1626C32.3177 30.9596 31.899 30.8953 30.7733 30.8953H29.2915V30.0641V29.2331L30.3903 29.1613C31.5206 29.0876 31.9468 28.8167 31.9468 28.1724C31.9468 27.5281 31.5206 27.2571 30.3903 27.1834L29.2915 27.1116V26.2806V25.4495H30.7733C32.3795 25.4495 32.7766 25.2667 32.7766 24.5278C32.7766 23.7301 32.3456 23.5775 30.0924 23.5775C28.2909 23.5775 27.9788 23.6188 27.7406 23.8887ZM17.8404 25.7898C18.0987 26.0546 18.1723 26.357 18.1723 27.1513V28.1724H16.8447H15.517V27.1513C15.517 25.879 15.8521 25.4495 16.8447 25.4495C17.2873 25.4495 17.6192 25.563 17.8404 25.7898Z" fill="#AC9376"/>
</svg>
