<svg width="40" height="40" viewBox="0 0 40 40" fill="none" xmlns="http://www.w3.org/2000/svg">
<path fill-rule="evenodd" clip-rule="evenodd" d="M31.2856 0.382101C30.9277 0.736965 30.9004 0.87502 30.9004 2.32763V3.89105H26.9052C23.1158 3.89105 22.9017 3.90661 22.7476 4.19206C22.6422 4.38755 22.5852 7.09074 22.5852 11.8963V19.2996H19.5439H16.5028L16.4425 16.6914C16.3873 14.3037 16.3518 14.0344 16.0235 13.5072C15.3261 12.388 14.0675 11.6157 11.9652 11.0171C10.3224 10.5493 6.29065 10.506 4.69979 10.9391C2.39226 11.5673 0.863679 12.5504 0.291188 13.7743C0.0244752 14.3444 0 14.8693 0 20C0 25.1307 0.0244752 25.6556 0.291188 26.2257C0.692983 27.0847 1.45704 27.7575 2.66022 28.3119C4.21845 29.0299 5.37912 29.2825 7.52381 29.3703C11.4545 29.5314 14.594 28.5111 15.9088 26.6454L16.3809 25.9757L16.4417 23.3381L16.5028 20.7004H19.5439H22.5852V28.1037C22.5852 32.9093 22.6422 35.6124 22.7476 35.8079C22.9017 36.0934 23.1158 36.1089 26.9052 36.1089H30.9004V37.6724C30.9004 39.125 30.9277 39.263 31.2856 39.6179L31.6706 40H35.4502H39.2298L39.6148 39.6179L40 39.236V35.4864V31.7368L39.6148 31.3549L39.2298 30.9728H35.4502H31.6706L31.2856 31.3549C30.9277 31.7097 30.9004 31.8478 30.9004 33.3004V34.8638H27.4488H23.9972V27.7821V20.7004H27.4488H30.9004V22.158C30.9004 23.3969 30.9492 23.6772 31.2256 24.0257L31.5507 24.4358H35.4502H39.3497L39.6748 24.0257C39.9826 23.6375 40 23.4221 40 20C40 16.5779 39.9826 16.3625 39.6748 15.9743L39.3497 15.5642H35.4502H31.5507L31.2256 15.9743C30.9492 16.3228 30.9004 16.6031 30.9004 17.842V19.2996H27.4488H23.9972V12.2179V5.13619H27.4488H30.9004V6.69961C30.9004 8.15222 30.9277 8.29027 31.2856 8.64514L31.6706 9.02724H35.4502H39.2298L39.6148 8.64514L40 8.26319V4.51362V0.764047L39.6148 0.382101L39.2298 0H35.4502H31.6706L31.2856 0.382101ZM38.588 4.51362V7.62646H35.4502H32.3124V4.51362V1.40078H35.4502H38.588V4.51362ZM9.74192 11.9854C13.2131 12.3801 15.4968 13.8177 14.9048 15.2358C14.5325 16.1273 13.2001 16.8769 11.1753 17.3337C9.754 17.6545 6.7381 17.664 5.24891 17.3524C3.09779 16.9024 1.40511 15.7723 1.40511 14.786C1.40511 13.5544 3.67028 12.3245 6.55266 11.9911C8.06947 11.8157 8.24582 11.8154 9.74192 11.9854ZM38.588 20V23.1907H35.4502H32.3124V20V16.8093H35.4502H38.588V20ZM15.0545 18.7544V20.3882L14.5073 20.9891C12.2358 23.4834 4.20794 23.4884 1.86197 20.9969C1.41766 20.5251 1.40511 20.4672 1.40511 18.8811C1.40511 17.9841 1.45798 17.2741 1.52277 17.303C1.58757 17.3321 2.01792 17.5527 2.47917 17.7932C4.46116 18.8266 8.03433 19.2487 10.7763 18.7735C12.3086 18.5079 13.9318 17.9356 14.5839 17.431C14.7996 17.2641 14.9938 17.1259 15.0153 17.124C15.0368 17.1222 15.0545 17.8559 15.0545 18.7544ZM3.76457 23.5636C7.02929 24.6425 11.3573 24.396 14.0495 22.9777L15.0545 22.4484V23.9637C15.0545 25.2797 15.0081 25.5468 14.7015 25.9922C13.8306 27.2577 11.3472 28.0458 8.22981 28.0458C5.24138 28.0458 2.82261 27.3282 1.81773 26.1435C1.42989 25.6862 1.40511 25.5597 1.40511 24.0325V22.4081L1.99344 22.7903C2.31711 23.0006 3.11411 23.3486 3.76457 23.5636ZM38.588 35.4864V38.5992H35.4502H32.3124V35.4864V32.3735H35.4502H38.588V35.4864Z" fill="#AC9376"/>
</svg>
