<svg width="40" height="40" viewBox="0 0 40 40" fill="none" xmlns="http://www.w3.org/2000/svg">
<path fill-rule="evenodd" clip-rule="evenodd" d="M10.6006 0.145009C10.1778 0.423763 10.1197 0.587984 10.0775 1.6237L10.0385 2.58387L9.22807 2.85544C8.78236 3.00489 8.10367 3.28927 7.71992 3.4874L7.02225 3.84779L6.34286 3.18372C5.23917 2.10504 5.08221 2.13168 3.57562 3.65302C2.12473 5.11812 2.10637 5.2582 3.2178 6.3797L3.85 7.01768L3.48843 7.71777C3.2896 8.10277 3.00467 8.78255 2.85521 9.22826L2.58365 10.0387L1.62347 10.0777C0.587748 10.1198 0.423525 10.178 0.14477 10.6008C0.0166426 10.7951 0.000236002 10.9926 1.62207e-06 12.3434C-0.000310884 14.4835 0.042815 14.5433 1.63167 14.6084L2.60005 14.6481L2.77974 15.2731C2.87857 15.6169 3.15772 16.2971 3.40007 16.7847L3.8407 17.6713L3.18006 18.3472C2.10629 19.4459 2.13231 19.5966 3.65828 21.1197C4.6172 22.0768 4.77486 22.2034 5.05377 22.2409C5.49659 22.3002 5.80246 22.1309 6.47466 21.4542L7.04553 20.8795L7.79875 21.263C8.21297 21.4738 8.89517 21.7552 9.31471 21.8882C10.1654 22.1579 10.2218 22.2343 9.90176 22.683C9.73316 22.9195 9.72511 23.0042 9.70441 24.7654C9.68074 26.7904 9.71152 26.9544 10.1807 27.299C10.3775 27.4437 10.5325 27.4634 11.6439 27.4857L12.887 27.5105L12.9694 27.8373C13.1718 28.639 13.5652 29.6428 14.02 30.5182L14.5125 31.4662L13.7349 32.237C13.3071 32.6609 12.9069 33.1026 12.8455 33.2187C12.7135 33.4682 12.7021 33.8109 12.8158 34.1159C12.9098 34.3682 15.1658 36.6725 15.4839 36.8412C15.767 36.9913 16.3261 36.9829 16.5642 36.825C16.6704 36.7545 17.0987 36.361 17.5159 35.9506L18.2744 35.2045L18.6487 35.4195C19.5455 35.9348 21.141 36.5832 21.9332 36.7544L22.1872 36.8093V37.9566C22.1872 39.2472 22.2618 39.5019 22.734 39.8242C22.9832 39.9943 23.0513 40 24.8435 40C26.6387 40 26.7035 39.9946 26.9608 39.8227C27.4239 39.5134 27.4995 39.252 27.4996 37.9615L27.4998 36.8214L28.1443 36.6465C28.9367 36.4315 30.2747 35.8753 30.8826 35.508C31.1319 35.3575 31.3774 35.2343 31.4283 35.2343C31.4791 35.2343 31.8959 35.6083 32.3544 36.0654C33.1527 36.8612 33.2044 36.898 33.5732 36.9335C33.8308 36.9582 34.0338 36.9308 34.1861 36.8508C34.5539 36.6576 36.8553 34.2877 36.9176 34.0382C36.9478 33.9174 36.9531 33.6745 36.9294 33.4983C36.8919 33.2183 36.7826 33.0739 36.0604 32.3494C35.606 31.8936 35.2343 31.4792 35.2343 31.4283C35.2343 31.3775 35.3575 31.1319 35.508 30.8827C35.8752 30.2748 36.4315 28.9367 36.6465 28.1444L36.8213 27.4998L37.9614 27.4997C39.252 27.4996 39.5133 27.424 39.8227 26.9609C39.9946 26.7036 40 26.6388 40 24.8435C40 23.0514 39.9943 22.9833 39.8242 22.7341C39.5027 22.2631 39.2458 22.1873 37.97 22.1869L36.8359 22.1865L36.5389 21.2422C36.2488 20.3197 35.8518 19.3993 35.421 18.651L35.2068 18.2788L35.998 17.4748C36.4331 17.0326 36.826 16.5737 36.8711 16.4552C36.986 16.1529 36.9731 15.7328 36.8412 15.484C36.6725 15.166 34.3682 12.9099 34.1159 12.816C33.8108 12.7023 33.4682 12.7136 33.2186 12.8456C33.1026 12.9071 32.6609 13.3073 32.237 13.735L31.4662 14.5127L30.5182 14.0202C29.6428 13.5653 28.6389 13.172 27.8372 12.9696L27.5105 12.8871L27.4856 11.6441C27.4633 10.5327 27.4436 10.3777 27.2989 10.1808C26.9543 9.7117 26.7903 9.68092 24.7653 9.70459C23.0041 9.72529 22.9194 9.73334 22.6829 9.90194C22.2342 10.222 22.1578 10.1655 21.8881 9.3149C21.7551 8.89536 21.475 8.21559 21.2656 7.80425L20.8848 7.05643L21.5308 6.3883C22.2115 5.68415 22.3363 5.42274 22.2277 4.92828C22.1643 4.63929 20.2116 2.67473 19.827 2.51301C19.3741 2.32254 19.0948 2.44777 18.3522 3.1745L17.6761 3.83607L16.8921 3.44208C16.2373 3.11294 15.792 2.94395 14.7065 2.61239C14.6357 2.59067 14.6088 2.33019 14.6086 1.66206C14.6083 0.88705 14.5842 0.702126 14.4558 0.491576C14.1807 0.040398 14.0032 -0.000618121 12.3276 6.88727e-06C10.9922 0.000397518 10.7947 0.0170384 10.6006 0.145009ZM13.437 2.1491V3.12677L13.6909 3.40076C13.9 3.62638 14.0718 3.7092 14.665 3.87045C15.4719 4.08991 16.2188 4.40585 16.8803 4.80773C17.3521 5.09437 17.8146 5.16109 18.1493 4.99086C18.2431 4.94312 18.5924 4.63624 18.9254 4.30897L19.5311 3.71388L20.2341 4.41366C20.6208 4.79859 20.9371 5.15031 20.9371 5.19531C20.9371 5.24031 20.6884 5.52235 20.3845 5.82196C19.7777 6.42009 19.6095 6.67674 19.6079 7.00737C19.6073 7.12768 19.8355 7.68316 20.115 8.24176C20.4106 8.83231 20.7084 9.56803 20.8264 9.99959C21.0647 10.8705 21.34 11.2123 21.8721 11.2973L22.1872 11.3477V12.1135V12.8792L21.7379 13.003C20.6764 13.2957 19.0701 13.9837 18.4883 14.395L18.266 14.5521L17.5312 13.8203L16.7964 13.0887V12.4199C16.7964 11.1438 16.3911 10.1478 15.5034 9.24263C14.564 8.28457 13.2938 7.80675 11.9815 7.91769C11.1842 7.98504 10.5897 8.22176 10.4657 8.52114C10.3476 8.80614 10.4427 9.06872 10.7328 9.2588C10.9118 9.37607 10.962 9.3756 11.3982 9.25326C12.1377 9.04575 13.0982 9.11997 13.7553 9.43537C14.3729 9.73186 15.004 10.3648 15.2719 10.9564C15.4819 11.4199 15.6571 12.2812 15.5932 12.5356C15.5286 12.7932 12.662 15.6247 12.4664 15.6242C11.1568 15.6205 9.80902 14.747 9.36753 13.6157C9.04127 12.7793 9.07838 11.7194 9.46362 10.8737C9.69105 10.3744 9.54847 9.98772 9.09494 9.87389C8.67025 9.76733 8.31001 10.2575 8.04141 11.3075C7.77179 12.3619 7.86984 13.2411 8.3747 14.2965C9.12174 15.8581 10.6494 16.792 12.462 16.7954L13.0885 16.7966L13.8202 17.5313L14.5519 18.2661L14.3948 18.4884C13.9836 19.0702 13.2955 20.6765 13.0028 21.738L12.879 22.1873H12.1133H11.3476L11.2972 21.8722C11.2121 21.3401 10.8703 21.0648 9.99941 20.8265C9.56128 20.7067 8.83447 20.4113 8.2254 20.1056C6.85943 19.4199 6.78865 19.426 5.90363 20.3065C5.55487 20.6533 5.23432 20.9372 5.19135 20.9372C5.14838 20.9372 4.79838 20.6209 4.41345 20.2342L3.71367 19.5312L4.30876 18.9256C4.63603 18.5925 4.94291 18.2432 4.99065 18.1494C5.17542 17.7862 5.09463 17.3753 4.7047 16.6953C4.36329 16.0998 3.9575 15.0569 3.75148 14.245C3.69867 14.037 3.57007 13.8333 3.3939 13.6786L3.11881 13.4371H2.14497H1.17112V12.3824V11.3277H1.98988C2.90584 11.3277 3.34616 11.2042 3.55241 10.8895C3.62117 10.7845 3.76437 10.3986 3.8707 10.0317C4.11696 9.18177 4.3904 8.532 4.77361 7.88566C5.00486 7.49565 5.07744 7.28987 5.07744 7.02409C5.07744 6.60642 4.98533 6.45712 4.28516 5.74001L3.74961 5.19148L4.47415 4.46991L5.19877 3.74834L5.62644 4.18756C6.61419 5.20219 6.996 5.30125 7.88547 4.77382C8.53579 4.38819 9.18221 4.11702 10.0512 3.86522C10.4289 3.75576 10.8126 3.61724 10.9039 3.55748C11.2226 3.34865 11.3276 2.97223 11.3276 2.03847V1.17135H12.3823H13.437V2.1491ZM26.264 12.0895C26.3088 13.7323 26.3768 13.8291 27.759 14.219C28.7588 14.501 29.5428 14.8246 30.3385 15.2835C31.5389 15.9758 31.7164 15.9423 32.8867 14.801L33.7187 13.9896L34.7291 15.0023L35.7396 16.0151L34.9486 16.8159C34.5136 17.2565 34.1186 17.6937 34.0709 17.7875C33.8976 18.1288 33.9675 18.604 34.2632 19.0944C34.8569 20.0789 35.2326 20.9757 35.554 22.175C35.8542 23.2954 36.0995 23.4373 37.7359 23.4373H38.8281V24.8826V26.3279H37.5689H36.3097L36.0138 26.6237C35.8251 26.8126 35.6862 27.0457 35.6299 27.2683C35.3169 28.5063 34.8566 29.626 34.2399 30.6502C33.9943 31.0582 33.9696 31.1497 34.0015 31.5347C34.037 31.9625 34.0404 31.9675 34.8887 32.8185L35.7404 33.6727L34.7065 34.7066L33.6727 35.7404L32.8185 34.8888C31.972 34.0449 31.9603 34.0369 31.5484 34.0059C31.2088 33.9804 31.0682 34.0115 30.7811 34.1755C29.5286 34.8908 28.3863 35.3642 27.2951 35.62C26.8097 35.7338 26.4253 36.0953 26.3236 36.5334C26.285 36.6998 26.2526 37.2842 26.2516 37.832L26.2497 38.8281H24.8435H23.4372V37.7359C23.4372 36.1017 23.2952 35.8553 22.1804 35.5543C21.0128 35.2392 20.1626 34.889 19.2115 34.3316C18.5883 33.9665 18.1508 33.8864 17.7874 34.0709C17.6936 34.1187 17.2564 34.5136 16.8158 34.9486L16.0149 35.7396L15.0022 34.7291L13.9895 33.7187L14.8008 32.8868C15.9441 31.7144 15.9765 31.5404 15.2773 30.3281C14.8311 29.5546 14.4279 28.5698 14.1839 27.6582C13.8461 26.3961 13.74 26.3279 12.1127 26.3279H10.9369V24.8826V23.4373L12.0112 23.4356C12.8961 23.4342 13.1428 23.4077 13.4114 23.2859C13.8369 23.0927 13.9382 22.9234 14.2129 21.9472C14.4878 20.9701 14.8194 20.1712 15.2884 19.357C15.9723 18.1696 15.9412 18.0152 14.7858 16.8562L13.9465 16.0144L14.9804 14.9805L16.0142 13.9467L16.8575 14.7874C18.0164 15.9427 18.1647 15.9725 19.3598 15.2897C20.1748 14.824 21.1435 14.424 22.008 14.1961C23.299 13.8556 23.4329 13.6509 23.4355 12.0113L23.4372 10.9371H24.8349H26.2327L26.264 12.0895ZM23.3679 17.4595C21.0942 17.9737 19.2188 19.3839 18.197 21.348C17.5189 22.6515 17.2994 23.6702 17.3646 25.2128C17.4068 26.2129 17.4977 26.6808 17.8137 27.5253C17.9464 27.8799 18.0382 28.0044 18.2366 28.0991C18.4668 28.2088 18.5127 28.2083 18.7359 28.0928C19.095 27.9072 19.1228 27.6655 18.8732 26.899C18.4145 25.4904 18.4203 24.1438 18.8909 22.7784C19.5732 20.7989 21.1946 19.2952 23.2464 18.7391C24.1156 18.5035 25.5639 18.5027 26.445 18.7374C28.2277 19.2121 29.7144 20.4314 30.509 22.0701C31.0167 23.1173 31.125 23.6037 31.1267 24.8435C31.1279 25.7036 31.0959 26.0107 30.9538 26.5076C30.3321 28.6805 28.6878 30.3253 26.5075 30.9557C25.6427 31.2057 24.0601 31.2046 23.1794 30.9533C22.224 30.6807 21.3769 30.216 20.5828 29.5288C20.0737 29.0881 19.6505 29.1281 19.4577 29.6351C19.3312 29.9681 19.4735 30.1885 20.1725 30.7416C22.165 32.3183 24.7619 32.7897 27.1873 32.0152C29.5307 31.2668 31.4514 29.2561 32.1053 26.8666C33.1971 22.8773 30.9089 18.7977 26.9138 17.6103C26.3189 17.4335 26.0303 17.3971 25.0388 17.3741C24.2113 17.3548 23.7202 17.3798 23.3679 17.4595ZM24.2575 20.3167C20.9528 20.7469 19.193 24.5353 21.0061 27.3159C21.6776 28.3457 22.7564 29.0871 23.945 29.3359C24.6488 29.4831 25.0238 29.4817 25.7636 29.3288C27.3987 28.9911 28.647 27.8823 29.1803 26.294C29.585 25.0882 29.4985 23.9601 28.9096 22.7656C28.3738 21.6786 27.1871 20.714 26.0456 20.4375C25.4151 20.2848 24.8143 20.2442 24.2575 20.3167ZM25.6638 21.5905C27.2803 22.023 28.2808 23.3892 28.1839 25.0317C28.0979 26.4885 27.2223 27.632 25.8741 28.0485C24.2333 28.5552 22.5665 27.8253 21.8189 26.2725C21.1915 24.9692 21.4793 23.4305 22.5378 22.4295C23.3898 21.6236 24.5868 21.3024 25.6638 21.5905Z" fill="#AC9376"/>
</svg>
