<svg width="40" height="40" viewBox="0 0 40 40" fill="none" xmlns="http://www.w3.org/2000/svg">
<path fill-rule="evenodd" clip-rule="evenodd" d="M25.1562 0.0795844C24.5347 0.20525 3.68423 11.2075 3.19496 11.6681C2.99618 11.8551 2.7194 12.249 2.57977 12.5433L2.32613 13.0785L2.32506 25.5755L2.32399 38.0724H1.46192C0.693393 38.0724 0.571663 38.1005 0.341062 38.3308C0.198866 38.473 0.0523827 38.7086 0.0157353 38.8545C-0.0725616 39.206 0.224262 39.7661 0.568019 39.8967C0.736148 39.9605 8.06414 39.9992 20.0171 39.9992C41.2296 39.9992 39.6885 40.0524 39.9331 39.3119C40.0326 39.0106 40.0241 38.8816 39.8873 38.6174C39.6517 38.1621 39.4226 38.0724 38.4963 38.0724H37.6856V20.2158C37.6856 0.263267 37.7459 1.77639 36.9168 0.922955C36.6803 0.679545 36.2622 0.376728 35.9878 0.249993C35.502 0.0256364 35.3597 0.019214 30.5597 0.00165945C27.8486 -0.00818825 25.4171 0.0268136 25.1562 0.0795844ZM35.4803 2.20583L35.7568 2.4654V20.2689V38.0724H30.9883H26.2199V19.9783V1.88396L30.7119 1.91522L35.204 1.94637L35.4803 2.20583ZM24.2911 20.3038V38.0724H20.9245H17.558L17.5219 35.6908C17.4688 32.1876 17.5296 32.2552 14.3894 32.2037C11.9396 32.1636 11.4988 32.2537 11.1151 32.8741C10.9119 33.2024 10.8965 33.3984 10.8965 35.6499V38.0724H7.57465H4.25281V25.7212C4.25281 14.1146 4.26416 13.3564 4.44033 13.1461C4.56935 12.9923 23.8661 2.67178 24.2643 2.54365C24.2789 2.53894 24.2911 10.531 24.2911 20.3038ZM28.6218 5.04208C28.44 5.12118 28.1868 5.31845 28.0592 5.48051C27.8433 5.75475 27.8272 5.8938 27.8272 7.48409V9.19299L28.1811 9.54654C28.6307 9.99558 29.1156 10.0638 31.493 10.0124C33.3984 9.97117 33.62 9.9093 34.014 9.30859C34.173 9.06625 34.203 8.76986 34.203 7.4447C34.203 6.01967 34.1818 5.84017 33.9811 5.56679C33.5341 4.95816 33.2304 4.88986 30.9883 4.89436C29.5275 4.89725 28.859 4.939 28.6218 5.04208ZM32.6492 7.45894V8.4223H30.9883H29.3274V7.45894V6.49557H30.9883H32.6492V7.45894ZM7.40513 13.5569C7.28255 13.6065 7.05345 13.7998 6.89614 13.9865C6.61335 14.3222 6.61025 14.3441 6.61025 15.9784V17.6309L6.97683 18.0308L7.34341 18.4306L9.64974 18.4632C12.2196 18.4995 12.4358 18.4551 12.8296 17.8098C13.0093 17.5155 13.0389 17.2667 13.0392 16.0455C13.0397 14.4166 12.9245 14.0039 12.3763 13.6701C12.05 13.4713 11.846 13.4545 9.82494 13.4604C8.61675 13.4639 7.52783 13.5073 7.40513 13.5569ZM16.1377 13.6972C15.5442 14.0968 15.4962 14.2865 15.5287 16.1007L15.5578 17.7313L15.9079 18.081L16.258 18.4306L18.554 18.4632C21.1125 18.4995 21.3301 18.4546 21.7236 17.8098C21.9048 17.5131 21.9329 17.2665 21.9329 15.9686C21.9329 14.6708 21.9048 14.4242 21.7236 14.1274C21.3432 13.5041 21.1135 13.4532 18.6866 13.4532C16.5882 13.4532 16.4858 13.463 16.1377 13.6972ZM28.5183 13.6192C27.913 13.9176 27.8268 14.2146 27.831 15.9851C27.8351 17.7122 27.89 17.9243 28.4237 18.2758C28.709 18.4635 28.9442 18.4827 30.9669 18.4833C33.445 18.4842 33.6742 18.4338 34.0137 17.8133C34.1682 17.5308 34.203 17.2017 34.203 16.0222C34.203 14.3807 34.0993 14.0002 33.5616 13.6682C33.2423 13.4711 33.0319 13.4534 31.0293 13.4557C29.304 13.4576 28.7765 13.4919 28.5183 13.6192ZM11.4323 15.9686V16.8785H9.82494H8.21759V15.9686V15.0588H9.82494H11.4323V15.9686ZM20.3263 15.9686V16.8785H18.7189H17.1116V15.9686V15.0588H18.7189H20.3263V15.9686ZM32.6492 15.9686V16.8785H30.9883H29.3274V15.9686V15.0588H30.9883H32.6492V15.9686ZM7.22779 22.1839C6.70229 22.4688 6.61025 22.8143 6.61067 24.4997C6.611 25.8462 6.63704 26.073 6.82735 26.3847C7.18643 26.9731 7.52493 27.0473 9.84991 27.0473C11.648 27.0473 11.9655 27.0218 12.2829 26.8517C12.9153 26.513 13.0396 26.1269 13.0396 24.5015C13.0396 22.9542 12.9584 22.6489 12.4379 22.2399C12.169 22.0286 12.0273 22.0166 9.83726 22.0207C7.99792 22.0241 7.46064 22.0577 7.22779 22.1839ZM16.1675 22.1612C15.5979 22.4769 15.5056 22.7997 15.5053 24.4783C15.5051 25.8469 15.5306 26.0723 15.7213 26.3847C16.0804 26.9731 16.4189 27.0473 18.7439 27.0473C21.0741 27.0473 21.3688 26.9728 21.7423 26.2898C21.9172 25.9699 21.9386 25.7218 21.9113 24.3361L21.88 22.7487L21.4798 22.3826L21.0795 22.0164L18.7473 22.0202C17.0568 22.0229 16.3469 22.0618 16.1675 22.1612ZM28.1881 22.3986L27.8272 22.7809V24.4715C27.8272 26.0239 27.8455 26.1853 28.051 26.4463C28.4887 27.0021 28.7113 27.0473 31.0098 27.0469C32.9238 27.0465 33.165 27.0261 33.4739 26.8379C34.0504 26.4867 34.1773 26.1829 34.2334 25.0185C34.3105 23.419 34.2029 22.7977 33.7747 22.37L33.4208 22.0164H30.9849H28.549L28.1881 22.3986ZM11.4323 24.4783V25.4417H9.82494H8.21759V24.4783V23.515H9.82494H11.4323V24.4783ZM20.3263 24.4783V25.4417H18.7189H17.1116V24.4783V23.515H18.7189H20.3263V24.4783ZM32.6492 24.4783V25.4417H30.9883H29.3274V24.5497C29.3274 24.0591 29.3595 23.6255 29.3989 23.5864C29.4381 23.5471 30.1855 23.515 31.0598 23.515H32.6492V24.4783ZM15.9329 35.9316V38.0724H14.1648H12.3967V35.9316V33.7908H14.1648H15.9329V35.9316Z" fill="#AC9376"/>
</svg>
