<svg width="20" height="25" viewBox="0 0 20 25" fill="none" xmlns="http://www.w3.org/2000/svg">
<path fill-rule="evenodd" clip-rule="evenodd" d="M8.68372 0.0627592C7.07957 0.301989 5.77332 0.772159 4.49462 1.57079C1.86051 3.21575 0.233918 5.8741 0.0171634 8.88793C-0.25165 12.627 2.64399 17.7675 8.22278 23.4554C9.01592 24.264 9.74578 24.9498 9.8447 24.9792C9.94362 25.0087 10.0974 25.0065 10.1865 24.9745C10.4196 24.8905 13.0012 22.2354 14.1736 20.8736C17.3938 17.1333 19.3778 13.609 19.8799 10.7367C20.4892 7.25243 18.7415 3.58937 15.5059 1.56875C14.4392 0.90255 13.69 0.590079 12.4438 0.291554C11.3357 0.0261871 9.62618 -0.0778724 8.68372 0.0627592ZM11.1605 5.26925C12.7644 5.67008 14.0323 6.90368 14.4176 8.43834C14.6245 9.26223 14.5031 10.3658 14.1212 11.1318C12.7925 13.7966 9.15225 14.4518 6.88027 12.4351C5.08212 10.8389 5.01323 8.16146 6.72648 6.4612C7.28219 5.9097 8.19503 5.39067 8.87117 5.24165C9.48351 5.10677 10.5623 5.11974 11.1605 5.26925Z" fill="#AC9376"/>
</svg>
